<svg xmlns="http://www.w3.org/2000/svg" version="1.1" xmlns:xlink="http://www.w3.org/1999/xlink" width="1000" height="1000"><g clip-path="url(#SvgjsClipPath1094)"><rect width="1000" height="1000" fill="#ffffff"></rect><g transform="matrix(1.733102253032929,0,0,1.733102253032929,166.3778162911612,0)"><svg xmlns="http://www.w3.org/2000/svg" version="1.1" xmlns:xlink="http://www.w3.org/1999/xlink" width="385" height="577"><svg width="385" height="577" viewBox="0 0 385 577" fill="none" xmlns="http://www.w3.org/2000/svg">
<path d="M191.5 556.5C250.333 529.5 365.5 461.5 365.5 383C365.5 306.996 365.167 194 365.5 147H19V383C19 459.5 126 532 191.5 556.5Z" stroke="black" stroke-width="37"></path>
<path d="M191.117 452C221.17 438.154 280 403.282 280 363.026C280 324.049 279.83 266.103 280 242H103V363.026C103 402.256 157.658 439.436 191.117 452Z" fill="white" stroke="black" stroke-width="24"></path>
<path d="M191.84 377C204.405 371.198 229 356.585 229 339.716C229 323.382 228.929 299.1 229 289H155V339.716C155 356.155 177.851 371.735 191.84 377Z" fill="white" stroke="black" stroke-width="22"></path>
<path d="M67.5317 88.6022L80.0317 128.602H194.032V41.0552H183C180.321 58.2411 176.453 66.6457 163.532 74.1023H155.032C148.939 74.1023 140.698 62.4356 137.032 55.1022L121.032 60.6021C125.818 70.3796 112 88.6022 103.032 88.1022C91.6707 86.6844 86.7106 84.0695 80.0318 76.6021L67.5317 88.6022Z" fill="black" stroke="black" stroke-width="9"></path>
<path d="M316.468 88.6022L303.968 128.602H189.968L201 41.0552C203.679 58.2411 207.547 66.6457 220.468 74.1023H228.968C235.061 74.1023 243.302 62.4356 246.968 55.1022L262.968 60.6021C258.182 70.3796 272 88.6022 280.968 88.1022C292.329 86.6844 297.289 84.0695 303.968 76.6021L316.468 88.6022Z" fill="black" stroke="black" stroke-width="9"></path>
<circle cx="126.5" cy="47.5" r="23.5" fill="black"></circle>
<circle cx="254.5" cy="47.5" r="23.5" fill="black"></circle>
<circle cx="191.5" cy="25.5" r="25.5" fill="black"></circle>
<circle cx="67.5" cy="72.5" r="21.5" fill="black"></circle>
<circle cx="313.5" cy="72.5" r="21.5" fill="black"></circle>
</svg></svg></g></g><defs><clipPath id="SvgjsClipPath1094"><rect width="1000" height="1000" x="0" y="0" rx="200" ry="200"></rect></clipPath></defs></svg>